<svg width="49" height="48" viewBox="0 0 49 48" fill="none" xmlns="http://www.w3.org/2000/svg">
<g clip-path="url(#clip0_3507_2)">
<path d="M24.0963 0C10.8415 0 0.0962524 10.7453 0.0962524 24C0.0962524 35.255 7.84537 44.6995 18.2988 47.2934V31.3344H13.35V24H18.2988V20.8397C18.2988 12.671 21.9958 8.8848 30.0156 8.8848C31.5363 8.8848 34.1599 9.18336 35.2332 9.48096V16.129C34.6668 16.0694 33.6828 16.0397 32.4607 16.0397C28.5257 16.0397 27.0051 17.5306 27.0051 21.4061V24H34.8444L33.4975 31.3344H27.0051V47.8243C38.8889 46.3891 48.0972 36.2707 48.0972 24C48.0963 10.7453 37.351 0 24.0963 0Z" fill="white"/>
</g>
<defs>
<clipPath id="clip0_3507_2">
<rect width="48" height="48" fill="white" transform="translate(0.0962524)"/>
</clipPath>
</defs>
</svg>
