<svg width="49" height="48" viewBox="0 0 49 48" fill="none" xmlns="http://www.w3.org/2000/svg">
<g clip-path="url(#clip0_3507_8)">
<path d="M45.3509 0H4.44774C2.48837 0 0.903992 1.54688 0.903992 3.45938V44.5312C0.903992 46.4437 2.48837 48 4.44774 48H45.3509C47.3102 48 48.904 46.4438 48.904 44.5406V3.45938C48.904 1.54688 47.3102 0 45.3509 0ZM15.1446 40.9031H8.01962V17.9906H15.1446V40.9031ZM11.5821 14.8688C9.29462 14.8688 7.44774 13.0219 7.44774 10.7437C7.44774 8.46562 9.29462 6.61875 11.5821 6.61875C13.8602 6.61875 15.7071 8.46562 15.7071 10.7437C15.7071 13.0125 13.8602 14.8688 11.5821 14.8688ZM41.8071 40.9031H34.6915V29.7656C34.6915 27.1125 34.6446 23.6906 30.9884 23.6906C27.2852 23.6906 26.7227 26.5875 26.7227 29.5781V40.9031H19.6165V17.9906H26.4415V21.1219H26.5352C27.4821 19.3219 29.8071 17.4188 33.2665 17.4188C40.4759 17.4188 41.8071 22.1625 41.8071 28.3313V40.9031V40.9031Z" fill="white"/>
</g>
<defs>
<clipPath id="clip0_3507_8">
<rect width="48" height="48" fill="white" transform="translate(0.903992)"/>
</clipPath>
</defs>
</svg>
