<svg width="56" height="46" viewBox="0 0 56 46" fill="none" xmlns="http://www.w3.org/2000/svg">
<path fill-rule="evenodd" clip-rule="evenodd" d="M4.62881 20.0371C19.3687 13.6152 29.1976 9.38145 34.1155 7.33593C48.1571 1.49554 51.0748 0.481001 52.9765 0.447501C53.3948 0.440133 54.33 0.543792 54.9358 1.03535C55.4473 1.45042 55.5881 2.01111 55.6554 2.40463C55.7228 2.79816 55.8066 3.69462 55.74 4.39509C54.9791 12.3901 51.6866 31.792 50.0115 40.7466C49.3028 44.5356 47.9072 45.806 46.5561 45.9304C43.6199 46.2006 41.3902 43.9899 38.5463 42.1257C34.0962 39.2086 31.5822 37.3927 27.2626 34.5461C22.2705 31.2565 25.5067 29.4484 28.3516 26.4935C29.0962 25.7202 42.0333 13.9529 42.2837 12.8854C42.315 12.7519 42.344 12.2543 42.0484 11.9915C41.7528 11.7287 41.3164 11.8186 41.0015 11.89C40.5552 11.9913 33.4461 16.6902 19.6742 25.9866C17.6563 27.3723 15.8285 28.0474 14.1909 28.012C12.3856 27.973 8.91286 26.9913 6.33125 26.1521C3.1648 25.1228 0.648164 24.5786 0.867306 22.8306C0.981449 21.9201 2.23528 20.9889 4.62881 20.0371Z" fill="#F68826"/>
</svg>
