<svg width="45" height="45" viewBox="0 0 45 45" fill="none" xmlns="http://www.w3.org/2000/svg">
<path fill-rule="evenodd" clip-rule="evenodd" d="M5.84194 20.0399C16.0058 15.6117 22.7834 12.6923 26.1745 11.2818C35.857 7.25454 37.8689 6.55496 39.1802 6.53186C39.4686 6.52678 40.1135 6.59826 40.5313 6.93722C40.884 7.22342 40.981 7.61005 41.0275 7.88141C41.0739 8.15276 41.1317 8.77092 41.0858 9.25393C40.5611 14.7669 38.2907 28.1455 37.1357 34.3202C36.647 36.9329 35.6846 37.8089 34.753 37.8947C32.7283 38.081 31.1908 36.5566 29.2298 35.2712C26.1613 33.2597 24.4277 32.0075 21.4491 30.0447C18.0068 27.7762 20.2383 26.5295 22.2001 24.4919C22.7134 23.9587 31.6343 15.8445 31.8069 15.1085C31.8285 15.0164 31.8486 14.6732 31.6447 14.4921C31.4408 14.3109 31.14 14.3728 30.9228 14.4221C30.6151 14.4919 25.7129 17.7321 16.2165 24.1424C14.825 25.0979 13.5647 25.5634 12.4355 25.539C11.1906 25.5121 8.79602 24.8352 7.01586 24.2565C4.83243 23.5468 3.09708 23.1715 3.24819 21.9661C3.32689 21.3383 4.19148 20.6962 5.84194 20.0399Z" fill="#F68826"/>
</svg>
