<svg width="27" height="22" viewBox="0 0 27 22" fill="none" xmlns="http://www.w3.org/2000/svg">
<path fill-rule="evenodd" clip-rule="evenodd" d="M2.06899 9.69867C9.06547 6.65042 13.7309 4.64082 16.0653 3.66988C22.7303 0.89766 24.1152 0.416096 25.0179 0.400194C25.2165 0.396697 25.6604 0.4459 25.9479 0.679226C26.1907 0.876242 26.2575 1.14238 26.2895 1.32917C26.3215 1.51597 26.3613 1.94149 26.3296 2.27397C25.9685 6.06894 24.4056 15.2783 23.6105 19.5287C23.2741 21.3272 22.6117 21.9303 21.9704 21.9893C20.5766 22.1175 19.5183 21.0682 18.1684 20.1834C16.0561 18.7987 14.8628 17.9368 12.8124 16.5856C10.4429 15.0241 11.979 14.1659 13.3294 12.7633C13.6828 12.3962 19.8235 6.81073 19.9424 6.30403C19.9573 6.24066 19.9711 6.00445 19.8307 5.87972C19.6904 5.75499 19.4833 5.79764 19.3338 5.83156C19.122 5.87965 15.7475 8.11003 9.21048 12.5227C8.25266 13.1804 7.38509 13.5009 6.60778 13.4841C5.75085 13.4656 4.10247 12.9996 2.87707 12.6012C1.37407 12.1127 0.179517 11.8544 0.283536 11.0246C0.337715 10.5925 0.932865 10.1505 2.06899 9.69867Z" fill="white"/>
</svg>
