<svg width="46" height="45" viewBox="0 0 46 45" fill="none" xmlns="http://www.w3.org/2000/svg">
<path d="M23.632 2.71521C23.632 2.85246 23.632 2.98971 23.632 3.12696C23.632 7.72597 23.6354 12.325 23.6252 16.924C23.6241 17.2694 23.7051 17.4201 24.0685 17.5214C26.1531 18.0996 27.4694 20.1032 27.1904 22.2137C26.9035 24.3782 25.0799 25.978 22.9041 25.9757C20.743 25.9724 18.9531 24.4075 18.6358 22.2419C18.3253 20.1224 19.6922 18.0614 21.8061 17.5034C22.1177 17.4212 22.1954 17.2952 22.1954 16.9948C22.1875 12.3542 22.1897 7.71247 22.1886 3.07184C22.1886 2.95146 22.174 2.82996 22.1605 2.61621C22.039 2.77934 21.9625 2.86934 21.9006 2.96721C18.2871 8.69234 14.6736 14.4175 11.0623 20.1437C10.5313 20.9852 10.5572 21.6546 11.1771 22.3352C13.012 24.3467 14.0436 26.7497 14.5555 29.3867C14.7951 30.6231 14.9042 31.8842 15.0752 33.1634C20.275 33.1634 25.5209 33.1634 30.7949 33.1634C30.8612 32.4344 30.9074 31.711 30.9962 30.9921C31.3281 28.3056 32.1044 25.7766 33.6782 23.5401C33.9527 23.1509 34.2576 22.7807 34.5737 22.423C35.2454 21.6636 35.3151 21.028 34.774 20.1707C32.1302 15.9767 29.4831 11.785 26.8371 7.59097C25.8865 6.08009 24.9359 4.57034 23.983 3.06284C23.9031 2.93571 23.8154 2.81421 23.731 2.68934C23.6984 2.69834 23.6657 2.70621 23.632 2.71521Z" fill="#F68826"/>
<path d="M22.8682 34.6281C20.1165 34.6281 17.3647 34.6281 14.613 34.6281C13.7647 34.6281 13.5634 34.8272 13.5634 35.6608C13.5634 37.3911 13.5622 39.1202 13.5634 40.8505C13.5634 41.5817 13.7985 41.8247 14.5095 41.8247C20.1109 41.8258 25.7122 41.8258 31.3136 41.8247C32.01 41.8247 32.2564 41.5806 32.2575 40.8898C32.2598 39.1742 32.2586 37.4586 32.2586 35.743C32.2586 34.8025 32.0876 34.627 31.1651 34.627C28.3999 34.627 25.6335 34.6281 22.8682 34.6281Z" fill="#F68826"/>
<path d="M25.7798 21.6601C25.7798 20.0683 24.5085 18.7891 22.9223 18.7858C21.3135 18.7824 20.0355 20.0671 20.0423 21.6793C20.049 23.2667 21.3293 24.5368 22.9212 24.5334C24.5063 24.53 25.7798 23.2509 25.7798 21.6601Z" fill="#F68826"/>
</svg>
