<svg width="49" height="48" viewBox="0 0 49 48" fill="none" xmlns="http://www.w3.org/2000/svg">
<g clip-path="url(#clip0_3507_10)">
<path d="M48.3299 14.4001C48.3299 14.4001 47.8611 11.0907 46.4174 9.6376C44.5892 7.7251 42.5455 7.71572 41.608 7.60322C34.8955 7.11572 24.8174 7.11572 24.8174 7.11572H24.7986C24.7986 7.11572 14.7205 7.11572 8.00798 7.60322C7.07048 7.71572 5.02673 7.7251 3.19861 9.6376C1.75486 11.0907 1.29548 14.4001 1.29548 14.4001C1.29548 14.4001 0.807983 18.2907 0.807983 22.172V25.8095C0.807983 29.6907 1.28611 33.5813 1.28611 33.5813C1.28611 33.5813 1.75486 36.8907 3.18923 38.3438C5.01736 40.2563 7.41736 40.1907 8.48611 40.397C12.3299 40.7626 24.808 40.8751 24.808 40.8751C24.808 40.8751 34.8955 40.8563 41.608 40.3782C42.5455 40.2657 44.5892 40.2563 46.4174 38.3438C47.8611 36.8907 48.3299 33.5813 48.3299 33.5813C48.3299 33.5813 48.808 29.7001 48.808 25.8095V22.172C48.808 18.2907 48.3299 14.4001 48.3299 14.4001ZM19.8486 30.2251V16.7345L32.8142 23.5032L19.8486 30.2251Z" fill="white"/>
</g>
<defs>
<clipPath id="clip0_3507_10">
<rect width="48" height="48" fill="white" transform="translate(0.807983)"/>
</clipPath>
</defs>
</svg>
